
<svg xmlns="http://www.w3.org/2000/svg" width="100%" viewBox="0 0 184.066 201.638">
  <path id="Intersection_5" data-name="Intersection 5" d="M648.781,464.408,623.634,439.26a28.324,28.324,0,0,1-7.5-28.008l9.2-34.352a28.324,28.324,0,0,1,20.5-20.5l34.355-9.2a28.317,28.317,0,0,1,28.006,7.5l25.148,25.151a30.151,30.151,0,0,1,4.817,6.242,28.262,28.262,0,0,1,2.689,21.763L731.645,442.2a28.32,28.32,0,0,1-20.5,20.5l-34.354,9.205a30.169,30.169,0,0,1-7.812,1.049A28.268,28.268,0,0,1,648.781,464.408ZM765.16,393.643l-9.179-9.179a10.338,10.338,0,0,1-2.739-10.223L756.6,361.7a10.338,10.338,0,0,1,7.484-7.485l12.539-3.36a10.34,10.34,0,0,1,10.222,2.74l9.179,9.18a10.972,10.972,0,0,1,1.758,2.278,10.313,10.313,0,0,1,.981,7.944l-3.359,12.539a10.337,10.337,0,0,1-7.484,7.483l-12.539,3.36a11.012,11.012,0,0,1-2.852.383A10.316,10.316,0,0,1,765.16,393.643ZM720.3,339.215l-14.436-14.437a16.26,16.26,0,0,1-4.308-16.078l5.284-19.72a16.256,16.256,0,0,1,11.77-11.772l19.72-5.283a16.255,16.255,0,0,1,16.078,4.308l14.437,14.436a17.317,17.317,0,0,1,2.765,3.584,16.229,16.229,0,0,1,1.544,12.494l-5.285,19.721A16.253,16.253,0,0,1,756.1,338.238l-19.722,5.285a17.322,17.322,0,0,1-4.485.6A16.227,16.227,0,0,1,720.3,339.215Z" transform="translate(-615.081 -271.324)" fill="#f3f3f3"/>
</svg>
