<svg xmlns="http://www.w3.org/2000/svg" width="100%" viewBox="0 0 185.381 202.389">
  <g id="Symbol_1_1" data-name="Symbol 1 – 1" transform="translate(-1429 -2026.611)">
    <path id="Path_626" data-name="Path 626" d="M38.15,3.5l10.3,10.3a11.6,11.6,0,0,1,3.076,11.476L47.758,39.357a11.6,11.6,0,0,1-8.4,8.4L25.282,51.528a11.6,11.6,0,0,1-11.475-3.075L3.5,38.151A11.6,11.6,0,0,1,.43,26.676L4.2,12.6a11.6,11.6,0,0,1,8.4-8.4L26.675.43A11.6,11.6,0,0,1,38.15,3.5Z" transform="translate(1454.979 2229) rotate(-120)" fill="#8d80ff" fill-rule="evenodd"/>
    <path id="Path_627" data-name="Path 627" d="M91.523,8.409l24.715,24.714a27.836,27.836,0,0,1,7.38,27.531l-9.047,33.764a27.84,27.84,0,0,1-20.153,20.152l-33.765,9.047a27.836,27.836,0,0,1-27.528-7.376L8.408,91.523A27.834,27.834,0,0,1,1.031,63.995L10.078,30.23A27.838,27.838,0,0,1,30.229,10.077L63.994,1.031A27.833,27.833,0,0,1,91.523,8.409Z" transform="translate(1506.434 2196.882) rotate(-120)" fill="#8d80ff" fill-rule="evenodd"/>
  </g>
</svg>
