
<svg xmlns="http://www.w3.org/2000/svg" width="100%" viewBox="0 0 178.786 195.854">
  <path id="Intersection_3" data-name="Intersection 3" d="M1171.58,441.667l-14.023-14.023a16.824,16.824,0,0,1-2.684-3.479,15.761,15.761,0,0,1-1.5-12.137l5.132-19.154a15.79,15.79,0,0,1,11.433-11.433l19.156-5.133a15.789,15.789,0,0,1,15.616,4.184l14.022,14.022a15.792,15.792,0,0,1,4.184,15.617l-5.132,19.154a15.793,15.793,0,0,1-11.432,11.435l-19.155,5.132a16.825,16.825,0,0,1-4.357.585A15.757,15.757,0,0,1,1171.58,441.667Zm44.887-76.21-24.426-24.428a29.3,29.3,0,0,1-4.678-6.063,27.461,27.461,0,0,1-2.613-21.141l8.942-33.366a27.506,27.506,0,0,1,19.914-19.916l33.368-8.942a27.508,27.508,0,0,1,27.2,7.29l24.426,24.426a27.514,27.514,0,0,1,7.289,27.205l-8.939,33.366a27.514,27.514,0,0,1-19.915,19.917l-33.369,8.94a29.308,29.308,0,0,1-7.588,1.019A27.451,27.451,0,0,1,1216.468,365.457Zm-76.394,1.067-8.915-8.915a10.7,10.7,0,0,1-1.706-2.213,10.019,10.019,0,0,1-.954-7.717l3.263-12.179a10.04,10.04,0,0,1,7.268-7.269l12.179-3.263a10.041,10.041,0,0,1,9.93,2.66l8.915,8.916a10.045,10.045,0,0,1,2.661,9.93l-3.263,12.177a10.041,10.041,0,0,1-7.268,7.271L1150,369.184a10.7,10.7,0,0,1-2.769.372A10.024,10.024,0,0,1,1140.074,366.523Z" transform="translate(-1128.126 -250.583)" fill="#FF981C"/>
</svg>
