
<svg xmlns="http://www.w3.org/2000/svg" width="100%" viewBox="0 0 398.903 396.418">
  <path id="Intersection_4" data-name="Intersection 4" d="M118.134,495.251l-60.46-60.462c-18.1-18.1-24.665-42.611-18.041-67.336l22.126-82.588c6.622-24.727,24.571-42.67,49.293-49.3l82.594-22.129c24.724-6.622,49.235-.057,67.334,18.041l60.46,60.465c18.1,18.1,24.668,42.605,18.045,67.334l-22.131,82.589c-6.622,24.726-24.567,42.67-49.292,49.3l-82.593,22.131a72.5,72.5,0,0,1-18.781,2.521C148.652,515.816,131.615,508.733,118.134,495.251ZM354.3,223.18l-22.067-22.07a24.851,24.851,0,0,1-6.585-24.577l8.076-30.143a24.856,24.856,0,0,1,17.992-18l30.146-8.077a24.854,24.854,0,0,1,24.579,6.586l22.068,22.068a24.853,24.853,0,0,1,6.585,24.578l-8.077,30.145a24.851,24.851,0,0,1-17.992,17.994l-30.146,8.077a26.449,26.449,0,0,1-6.855.921A24.81,24.81,0,0,1,354.3,223.18Z" transform="translate(-37.111 -119.397)" fill="#FF981C"/>
</svg>
