
<svg width="163" height="52" viewBox="0 0 163 52" fill="none" xmlns="http://www.w3.org/2000/svg">
  <rect x=".554" y=".554" width="161.891" height="50.891" rx="12.446" fill="#7A6CFD"/><path fill-rule="evenodd" clip-rule="evenodd" d="M39.795 25.655c-.03-3.37 2.717-5.009 2.842-5.085-1.555-2.305-3.968-2.62-4.815-2.645-2.025-.215-3.99 1.232-5.022 1.232-1.051 0-2.64-1.209-4.353-1.174-2.202.034-4.265 1.331-5.395 3.342-2.334 4.101-.594 10.129 1.641 13.444 1.118 1.625 2.425 3.438 4.135 3.373 1.674-.069 2.299-1.082 4.318-1.082 2.002 0 2.588 1.082 4.332 1.043 1.796-.03 2.927-1.633 4.006-3.272 1.294-1.86 1.812-3.693 1.833-3.787-.043-.015-3.488-1.349-3.522-5.389Zm-3.296-9.91c.9-1.142 1.515-2.697 1.346-4.276-1.303.06-2.932.915-3.87 2.034-.831.985-1.573 2.6-1.381 4.117 1.463.111 2.967-.75 3.905-1.874Zm19.33 16.39h4.525l-2.231-6.671h-.062l-2.233 6.672Zm5.118 1.898h-5.71l-1.372 4.111h-2.419l5.41-15.211h2.512l5.408 15.211h-2.459l-1.37-4.11ZM74.154 32.6c0-2.246-1.142-3.722-2.887-3.722-1.714 0-2.866 1.506-2.866 3.722 0 2.234 1.153 3.731 2.866 3.731 1.745 0 2.887-1.465 2.887-3.731Zm2.305 0c0 3.445-1.818 5.66-4.56 5.66-1.555 0-2.792-.706-3.435-1.94h-.053v5.493H66.17V27.054h2.17V28.9h.041c.623-1.19 1.952-1.961 3.478-1.961 2.772 0 4.599 2.224 4.599 5.662Zm9.715 0c0-2.246-1.141-3.722-2.886-3.722-1.713 0-2.865 1.506-2.865 3.722 0 2.234 1.152 3.731 2.865 3.731 1.745 0 2.887-1.465 2.887-3.731Zm2.306 0c0 3.445-1.817 5.66-4.559 5.66-1.555 0-2.792-.706-3.436-1.94h-.052v5.493H78.19V27.054h2.17V28.9h.042c.622-1.19 1.952-1.961 3.478-1.961 2.772 0 4.598 2.224 4.598 5.662h.001Zm7.945 1.306c.166 1.508 1.61 2.498 3.582 2.498 1.889 0 3.248-.99 3.248-2.35 0-1.18-.82-1.888-2.761-2.371l-1.941-.476c-2.751-.675-4.028-1.98-4.028-4.101 0-2.624 2.252-4.427 5.45-4.427 3.166 0 5.336 1.803 5.41 4.427h-2.263c-.137-1.517-1.372-2.433-3.179-2.433-1.805 0-3.04.927-3.04 2.275 0 1.075.789 1.709 2.72 2.193l1.651.411c3.072.739 4.349 1.992 4.349 4.218 0 2.846-2.232 4.627-5.782 4.627-3.323 0-5.566-1.74-5.71-4.491h2.294Zm14.037-9.476v2.624h2.078v1.802h-2.078v6.114c0 .95.416 1.393 1.33 1.393.228 0 .592-.032.737-.053v1.793c-.249.063-.747.104-1.246.104-2.21 0-3.073-.842-3.073-2.993v-6.358h-1.589v-1.802h1.589V24.43h2.252Zm11.357 8.17c0-2.394-1.081-3.806-2.896-3.806-1.817 0-2.896 1.423-2.896 3.806 0 2.403 1.079 3.804 2.896 3.804 1.815 0 2.896-1.401 2.896-3.804Zm-8.076 0c0-3.49 2.022-5.683 5.18-5.683 3.166 0 5.182 2.193 5.182 5.683 0 3.498-2.006 5.682-5.182 5.682-3.177 0-5.18-2.184-5.18-5.682Zm12.209-5.547h2.139v1.889h.051c.344-1.255 1.34-2.004 2.628-2.004.322 0 .59.042.768.085v2.129c-.178-.074-.572-.137-1.007-.137-1.444 0-2.338.991-2.338 2.551v6.579h-2.241V27.053Zm8.344 4.523h5.46c-.052-1.698-1.121-2.814-2.679-2.814-1.547 0-2.666 1.14-2.781 2.814Zm7.578 3.31c-.302 2.014-2.232 3.396-4.702 3.396-3.178 0-5.15-2.162-5.15-5.63 0-3.478 1.983-5.735 5.056-5.735 3.022 0 4.922 2.108 4.922 5.47v.781h-7.715v.137c0 1.897 1.173 3.143 2.938 3.143 1.246 0 2.223-.602 2.523-1.562h2.128Zm-87.64-20.314h.964c.798 0 1.356-.476 1.356-1.165 0-.673-.5-1.109-1.346-1.109-.84 0-1.39.431-1.452 1.146h-1.057c.073-1.318 1.042-2.138 2.543-2.138 1.417 0 2.415.805 2.415 1.965a1.71 1.71 0 0 1-.363 1.07 1.669 1.669 0 0 1-.945.602v.085c.933.097 1.602.75 1.602 1.768 0 1.25-1.168 2.173-2.688 2.173-1.566 0-2.64-.861-2.705-2.163h1.073c.066.7.698 1.15 1.63 1.15.934 0 1.543-.506 1.543-1.22 0-.725-.574-1.171-1.577-1.171h-.993v-.993Zm8.428 2.188v-.46l-1.328.086c-.748.05-1.086.309-1.086.794 0 .499.424.786 1.007.786.808 0 1.406-.521 1.406-1.206h.001Zm-3.493.473c0-.994.73-1.566 2.021-1.648l1.471-.086v-.476c0-.582-.377-.912-1.112-.912-.598 0-1.012.224-1.132.614H59.38c.11-.948.99-1.556 2.222-1.556 1.36 0 2.13.689 2.13 1.854v3.768h-1.035v-.774h-.084c-.325.552-.919.866-1.633.866-1.047 0-1.811-.642-1.811-1.65Zm7.406-3.04v4.6h-1.072v-5.517h3.577v.916h-2.505Zm7.9 1.838c0-1.165-.543-1.868-1.452-1.868-.902 0-1.467.718-1.467 1.873 0 1.15.565 1.87 1.462 1.87.914 0 1.456-.705 1.456-1.875h.001Zm1.102 0c0 1.753-.873 2.852-2.243 2.852-.775 0-1.39-.344-1.673-.927h-.084v2.67h-1.073v-7.35h1.031v.912h.082c.328-.629.967-1.004 1.706-1.004 1.38 0 2.254 1.094 2.254 2.847Zm1.429 4.736v-.937c.083.017.25.02.35.02.509 0 .796-.211.981-.769l.08-.269-1.965-5.536h1.167l1.362 4.382h.085l1.357-4.382h1.136l-2.024 5.744c-.464 1.342-.978 1.774-2.086 1.774a4.813 4.813 0 0 1-.444-.026Zm5.39-3.54h1.066c.105.486.553.74 1.182.74.713 0 1.151-.32 1.151-.816 0-.532-.393-.786-1.152-.786h-.813v-.846h.8c.648 0 .977-.253.977-.714 0-.404-.32-.714-.978-.714-.6 0-1.038.258-1.106.694h-1.034c.11-.982.912-1.616 2.14-1.616 1.292 0 2.03.593 2.03 1.526 0 .55-.344 1.002-.858 1.128v.087c.704.168 1.063.628 1.063 1.24 0 1.05-.878 1.743-2.221 1.743-1.186 0-2.15-.552-2.248-1.666Zm6.013 1.565v-5.516h1.063v3.794h.085l2.502-3.793h1.064v5.515h-1.064v-3.814h-.079l-2.508 3.814h-1.063Zm10.567-4.6h-1.71v4.6h-1.073v-4.6h-1.711v-.915h4.495v.915Zm2.005 1.333h2.742c-.025-.866-.543-1.43-1.335-1.43-.795 0-1.348.569-1.407 1.43Zm3.771 1.778c-.245.988-1.114 1.596-2.354 1.596-1.557 0-2.51-1.084-2.51-2.847s.972-2.883 2.504-2.883c1.512 0 2.425 1.05 2.425 2.781v.38h-3.836v.061c.033.968.587 1.58 1.446 1.58.649 0 1.092-.237 1.292-.668h1.033Zm5.608-.962v1.615h1.271c.633 0 .973-.284.973-.804 0-.553-.384-.811-1.108-.811h-1.136Zm0-2.229v1.428h1.062c.649 0 .959-.254.959-.72 0-.43-.271-.708-.84-.708h-1.182.001Zm-1.063-.835h2.449c1.062 0 1.686.546 1.686 1.402 0 .557-.388 1.063-.917 1.166v.084c.703.082 1.161.603 1.161 1.272 0 .963-.713 1.59-1.905 1.59h-2.474v-5.514Z" fill="#FFFFFE"/><rect x=".554" y=".554" width="161.891" height="50.891" rx="12.446"
                                                                                                                                                                                                                                                                                                                                                                                                                                                                                                                                                                                                                                                                                                                                                                                                                                                                                                                                                                                                                                                                                                                                                                                                                                                                                                                                                                                                                                                                                                                                                                                                                                                                                                                                                                                                                                                                                                                                                                                                                                                                                                                                                                                                                                                                                                                                                                                                                                                                                                                                                                                                                                                                                                                                                                                                                                                                                                                                                                                                                                                                                                                                                                                                                                                                                                                                                                                                                                                                                                                                                                                                                                                                                                                                                                                                                                                                                                                                                                                                                                                                                                                                                                                                                                                                                                                                                                                                                                                                                                                                                                                                                                                                                                                                                                                                                                                                                                                                                                                                                                                                                                                                                                                                                                                                                                                                                                                                                                                                                                                       stroke="#rgba(140, 149, 156, 0)" stroke-width="1.109"/></svg>
