
<svg xmlns="http://www.w3.org/2000/svg" width="100%" viewBox="0 0 19 19">
  <g id="Group_410" data-name="Group 410" transform="translate(-654 -5461)">
    <g id="Group_409" data-name="Group 409">
      <g id="Group_408" data-name="Group 408">
        <g id="Group_406" data-name="Group 406">
          <path id="Union_12" data-name="Union 12" d="M-2230,2V0a.5.5,0,0,1,.5.5v1h1a.5.5,0,0,1,.5.5Z" transform="translate(2884 5478)" fill="#444444"/>
          <path id="Union_13" data-name="Union 13" d="M-2230,2V0a.5.5,0,0,1,.5.5v1h1a.5.5,0,0,1,.5.5Z" transform="translate(671 3250) rotate(-90)" fill="#444444"/>
        </g>
        <g id="Group_407" data-name="Group 407" transform="translate(1327 10941) rotate(180)">
          <path id="Union_12-2" data-name="Union 12" d="M-2230,2V0a.5.5,0,0,1,.5.5v1h1a.5.5,0,0,1,.5.5Z" transform="translate(2884 5478)" fill="#444444"/>
          <path id="Union_13-2" data-name="Union 13" d="M-2230,2V0a.5.5,0,0,1,.5.5v1h1a.5.5,0,0,1,.5.5Z" transform="translate(671 3250) rotate(-90)" fill="#444444"/>
        </g>
      </g>
    </g>
  </g>
</svg>
