
<svg xmlns="http://www.w3.org/2000/svg" width="100%" viewBox="0 0 189.932 209.672">
  <g id="Group_32" data-name="Group 32" transform="translate(607.661 -266.449) rotate(60)">
    <path id="Path_10" data-name="Path 10" d="M2112.369,1939.413l22.139,22.137a24.933,24.933,0,0,1,6.608,24.657l-8.1,30.243a24.932,24.932,0,0,1-18.049,18.049l-30.243,8.1a24.929,24.929,0,0,1-24.656-6.605l-22.138-22.139a24.93,24.93,0,0,1-6.608-24.656l8.1-30.243a24.931,24.931,0,0,1,18.05-18.049l30.242-8.1A24.935,24.935,0,0,1,2112.369,1939.413Z" transform="translate(-2036.418 -1388.552)" fill="#f3f3f3" fill-rule="evenodd"/>
    <path id="Path_11" data-name="Path 11" d="M2077.452,1936.206l12.708,12.708a14.314,14.314,0,0,1,3.794,14.155l-4.652,17.361a14.312,14.312,0,0,1-10.362,10.361l-17.361,4.652a14.312,14.312,0,0,1-14.154-3.792l-12.708-12.709a14.311,14.311,0,0,1-3.793-14.154l4.652-17.361a14.312,14.312,0,0,1,10.362-10.361l17.361-4.652A14.314,14.314,0,0,1,2077.452,1936.206Z" transform="translate(-1960.919 -1275.074)" fill="#f3f3f3" fill-rule="evenodd"/>
    <path id="Path_12" data-name="Path 12" d="M2060.315,1934.632l8.08,8.08a9.1,9.1,0,0,1,2.412,9l-2.958,11.038a9.1,9.1,0,0,1-6.588,6.588l-11.039,2.958a9.1,9.1,0,0,1-9-2.411l-8.081-8.081a9.1,9.1,0,0,1-2.412-9l2.958-11.039a9.1,9.1,0,0,1,6.588-6.588l11.039-2.957A9.1,9.1,0,0,1,2060.315,1934.632Z" transform="translate(-2016.499 -1262.945)" fill="#f3f3f3" fill-rule="evenodd"/>
  </g>
</svg>
