
<svg width="174" height="52" viewBox="0 0 174 52" fill="none" xmlns="http://www.w3.org/2000/svg">
  <rect x=".554" y=".554" width="172.891" height="50.891" rx="12.446" fill="#7A6CFD"/>
  <path fill-rule="evenodd" clip-rule="evenodd" d="M138.238 38.776h2.37V22.758h-2.37v16.018Zm21.361-10.248-2.718 6.945h-.081l-2.823-6.945h-2.553l4.231 9.706-2.413 5.4h2.473l6.522-15.106h-2.638Zm-13.451 8.429c-.775 0-1.86-.392-1.86-1.36 0-1.236 1.35-1.71 2.516-1.71 1.04 0 1.533.227 2.165.536-.184 1.483-1.451 2.534-2.821 2.534Zm.287-8.778c-1.717 0-3.496.763-4.231 2.453l2.105.884c.45-.884 1.288-1.174 2.167-1.174 1.226 0 2.473.742 2.493 2.06v.165c-.429-.247-1.349-.617-2.473-.617-2.27 0-4.58 1.256-4.58 3.605 0 2.144 1.861 3.525 3.947 3.525 1.593 0 2.474-.721 3.024-1.566h.082v1.235h2.291v-6.14c0-2.844-2.108-4.43-4.825-4.43Zm-14.658 2.3h-3.373v-5.49h3.373c1.773 0 2.779 1.48 2.779 2.744 0 1.241-1.006 2.746-2.779 2.746Zm-.062-7.72h-5.681v16.017h2.37v-6.068h3.312c2.628 0 5.212-1.918 5.212-4.975 0-3.056-2.584-4.974-5.212-4.974h-.001Zm-30.988 14.203c-1.639 0-3.01-1.384-3.01-3.283 0-1.92 1.372-3.324 3.01-3.324 1.616 0 2.887 1.403 2.887 3.325 0 1.897-1.271 3.282-2.887 3.282Zm2.723-7.536h-.082c-.532-.639-1.557-1.218-2.845-1.218-2.704 0-5.18 2.396-5.18 5.47 0 3.055 2.476 5.43 5.18 5.43 1.288 0 2.313-.577 2.845-1.238h.082v.783c0 2.086-1.107 3.2-2.887 3.2-1.454 0-2.355-1.053-2.724-1.94l-2.067.867c.592 1.444 2.168 3.22 4.791 3.22 2.785 0 5.14-1.652 5.14-5.676v-9.787h-2.253v.889Zm3.892 9.35h2.375V22.759h-2.375v16.018Zm5.875-5.283c-.061-2.106 1.618-3.179 2.828-3.179.941 0 1.74.475 2.007 1.156l-4.834 2.023h-.001Zm7.373-1.817c-.451-1.217-1.823-3.468-4.628-3.468-2.784 0-5.099 2.21-5.099 5.45 0 3.055 2.293 5.45 5.365 5.45 2.477 0 3.911-1.527 4.506-2.415l-1.843-1.24c-.616.909-1.455 1.508-2.663 1.508-1.208 0-2.068-.558-2.62-1.652l7.228-3.014-.247-.619h.001ZM63 29.881v2.312h5.489c-.164 1.3-.595 2.25-1.25 2.91-.799.806-2.049 1.693-4.239 1.693-3.379 0-6.02-2.746-6.02-6.151 0-3.406 2.641-6.152 6.02-6.152 1.823 0 3.154.723 4.137 1.652l1.618-1.631C67.382 23.193 65.561 22.18 63 22.18c-4.627 0-8.518 3.8-8.518 8.465 0 4.664 3.891 8.463 8.518 8.463 2.498 0 4.382-.827 5.856-2.375 1.516-1.526 1.987-3.673 1.987-5.408a7.528 7.528 0 0 0-.123-1.444H63Zm14.082 7.081c-1.637 0-3.05-1.364-3.05-3.304 0-1.962 1.413-3.303 3.05-3.303 1.638 0 3.052 1.341 3.052 3.303 0 1.94-1.414 3.304-3.052 3.304Zm0-8.755c-2.99 0-5.427 2.293-5.427 5.451 0 3.14 2.436 5.45 5.427 5.45 2.99 0 5.426-2.312 5.426-5.45 0-3.158-2.436-5.45-5.426-5.45Zm11.838 8.755c-1.639 0-3.052-1.364-3.052-3.304 0-1.962 1.413-3.303 3.052-3.303s3.051 1.341 3.051 3.303c0 1.94-1.412 3.304-3.05 3.304Zm0-8.755c-2.99 0-5.427 2.293-5.427 5.451 0 3.14 2.438 5.45 5.427 5.45 2.99 0 5.427-2.312 5.427-5.45 0-3.158-2.436-5.45-5.427-5.45Z"
        fill="#fff"/>
  <mask id="a" maskUnits="userSpaceOnUse" x="14" y="9" width="18" height="34">
    <path d="M15.577 9.995c-.37.396-.587 1.007-.587 1.8v28.34c0 .794.219 1.406.587 1.8l.094.092L31.42 26.152v-.374L15.671 9.902l-.094.093Z" fill="#fff"/>
</mask>
  <g mask="url(#a)">
    <path d="M15.577 9.995c-.37.396-.587 1.007-.587 1.8v28.34c0 .794.219 1.406.587 1.8l.094.092L31.42 26.152v-.374L15.671 9.902l-.094.093Z"
                               fill="#00C7FF"/>
</g>
  <mask id="b" maskUnits="userSpaceOnUse" x="31" y="20" width="14" height="12">
  <path d="M31.42 25.777v.375l5.248 5.293.12-.067 6.219-3.561c1.776-1.02 1.776-2.685 0-3.701l-6.219-3.564-.118-.068-5.25 5.293Z" fill="#fff"/>
</mask>
  <g mask="url(#b)">
    <path fill-rule="evenodd" clip-rule="evenodd"
          d="M31.42 25.777v.375l5.248 5.293.12-.067 6.219-3.561c1.776-1.02 1.776-2.685 0-3.701l-6.219-3.564-.118-.068-5.25 5.293Z"
                               fill="#FFCE00"/>
</g><mask id="c" maskUnits="userSpaceOnUse" x="15" y="25" width="22" height="18">
  <path d="M15.578 41.934c.585.624 1.553.702 2.642.08l18.568-10.636-5.368-5.414-15.842 15.97Z" fill="#fff"/>
</mask><g mask="url(#c)">
  <path fill-rule="evenodd" clip-rule="evenodd" d="M15.578 41.934c.585.624 1.553.702 2.642.08l18.568-10.636-5.368-5.414-15.842 15.97Z"
        fill="url(#d)"/>
</g>
  <mask id="e" maskUnits="userSpaceOnUse" x="15" y="9" width="22" height="17">
  <path d="m15.579 9.996 15.84 15.97 5.369-5.412L18.222 9.919c-.513-.293-.997-.433-1.426-.433-.49 0-.907.178-1.218.51"
        fill="#fff"/>
</mask>
  <g mask="url(#e)">
  <path d="m15.579 9.996 15.84 15.97 5.369-5.412L18.222 9.919c-.513-.293-.997-.433-1.426-.433-.49 0-.907.178-1.218.51" fill="#00F076"/>
</g>
  <path fill-rule="evenodd" clip-rule="evenodd"
        d="m18.22 10.104 24.786 14.197c.806.46 1.258 1.056 1.333 1.663 0-.67-.444-1.341-1.333-1.85L18.22 9.917c-1.776-1.017-3.23-.172-3.23 1.879v.186c0-2.05 1.454-2.895 3.23-1.878Zm42.177 1.202c0-.368-.139-.661-.414-.88-.276-.216-.65-.325-1.124-.325-.404 0-.745.109-1.015.323a1.014 1.014 0 0 0-.408.837h-1.409c0-.447.123-.844.37-1.194.246-.349.585-.62 1.022-.814a3.528 3.528 0 0 1 1.44-.29c.93 0 1.655.206 2.172.614.514.41.772.982.772 1.718 0 .371-.11.713-.334 1.025a2.28 2.28 0 0 1-.94.737c.456.158.802.397 1.043.719.24.319.36.72.36 1.197 0 .734-.28 1.319-.838 1.753-.56.433-1.304.65-2.234.65a3.79 3.79 0 0 1-1.557-.31c-.462-.207-.81-.487-1.043-.845a2.184 2.184 0 0 1-.35-1.227h1.407c0 .354.146.65.437.893.29.242.658.363 1.105.363.5 0 .902-.119 1.204-.354.305-.237.457-.545.457-.924 0-.462-.134-.797-.401-1.005-.266-.208-.656-.312-1.17-.312h-.955v-1.126h.905c.997 0 1.497-.408 1.497-1.224v.001Zm4.646 2.905H67.4l-1.178-3.4-1.179 3.4Zm2.755 1.149h-3.152l-.66 1.909H62.52l3.07-8.199h1.268l3.079 8.198H68.46l-.663-1.909Zm8.26-5.14h-3.753v7.049h-1.409V9.07h5.163v1.148Zm2.586 2.86h1.698c.504 0 .886-.12 1.152-.358.263-.238.396-.583.396-1.033 0-.443-.135-.797-.402-1.062-.269-.264-.637-.4-1.107-.408h-1.737v2.86Zm0 1.148v3.04h-1.413V9.07h3.11c.91 0 1.631.24 2.165.717.535.477.802 1.108.802 1.893 0 .806-.262 1.43-.784 1.877-.524.448-1.258.67-2.199.67h-1.682.001Zm8.827-.873 1.63-4.284h1.569l-2.83 6.8-.257.514c-.373.668-.976 1.002-1.81 1.002l-.58-.034.01-1.126c.089.015.246.023.475.023.402 0 .684-.173.85-.518l.29-.692-2.783-5.969h1.542l1.894 4.284Zm8.343-2.049c0-.368-.138-.661-.414-.88-.275-.216-.65-.325-1.123-.325-.405 0-.745.109-1.015.323a1.014 1.014 0 0 0-.408.837h-1.41c0-.447.124-.844.37-1.194a2.42 2.42 0 0 1 1.023-.814 3.529 3.529 0 0 1 1.44-.29c.93 0 1.655.206 2.172.614.514.41.772.982.772 1.718 0 .371-.111.713-.334 1.025a2.28 2.28 0 0 1-.94.737c.456.158.802.397 1.043.719.24.319.36.72.36 1.197 0 .734-.28 1.319-.838 1.753-.56.433-1.304.65-2.234.65a3.79 3.79 0 0 1-1.557-.31c-.463-.207-.81-.487-1.043-.845a2.184 2.184 0 0 1-.35-1.227h1.407c0 .354.146.65.437.893.29.242.658.363 1.105.363.5 0 .901-.119 1.204-.354.305-.237.457-.545.457-.924 0-.462-.134-.797-.401-1.005-.266-.208-.656-.312-1.17-.312h-.956v-1.126h.906c.997 0 1.497-.408 1.497-1.224v.001Zm7.833-2.236h1.411v8.199h-1.411v-5.84l-3.571 5.84h-1.411V9.07h1.412v5.846l3.57-5.846Zm8.818 1.15h-2.535v7.049h-1.402v-7.05h-2.515V9.071h6.453l-.001 1.148Zm5.821 3.389h-3.342v2.523h3.905v1.137h-5.316V9.07h5.277v1.148h-3.866v2.265h3.343l-.001 1.126Zm5.975-.04v2.563h1.57c.444 0 .79-.112 1.04-.333.25-.222.375-.53.375-.922 0-.854-.433-1.289-1.296-1.307h-1.689Zm0-1.046h1.386c.44 0 .783-.101 1.031-.302.247-.2.371-.485.371-.853 0-.406-.113-.698-.343-.88-.228-.178-.586-.269-1.069-.269h-1.376v2.304Zm-1.411 4.746V9.07h2.788c.918 0 1.617.186 2.098.557.48.372.721.926.721 1.66 0 .377-.1.714-.302 1.014-.201.302-.494.534-.882.699.439.12.779.347 1.019.677.24.333.361.732.361 1.199 0 .768-.245 1.36-.735 1.773-.491.412-1.192.619-2.102.619h-2.966Z"
          fill="#fff"/>
  <rect x=".554" y=".554" width="172.891" height="50.891" rx="12.446"
        stroke="#rgba(140, 149, 156, 0)" stroke-width="1.109"/>
  <defs>
    <linearGradient id="d" x1="33.87" y1="31.056" x2="10.63" y2="54.109" gradientUnits="userSpaceOnUse">
      <stop stop-color="#FF3A44"/>
      <stop offset="1" stop-color="#C31162"/>
    </linearGradient>
  </defs>
</svg>
